<?xml version="1.0" encoding="utf-8"?>
<!-- Generator: Adobe Illustrator 24.0.0, SVG Export Plug-In . SVG Version: 6.00 Build 0)  -->
<svg version="1.1" id="Layer_1" xmlns="http://www.w3.org/2000/svg" xmlns:xlink="http://www.w3.org/1999/xlink" x="0px" y="0px"
	 viewBox="0 0 490.46 121.38" style="enable-background:new 0 0 490.46 121.38;" xml:space="preserve">
<style type="text/css">
	.st0{fill:#4C3A3B;}
	.st1{fill:#48BEBF;}
	.st2{fill:#4BB7E3;}
	.st3{fill:#3BBCDF;}
	.st4{fill:#40BECF;}
	.st5{fill:#3E3E3E;}
	.st6{fill:#EF5B36;}
	.st7{fill:#E81D7C;}
	.st8{fill:#F27A22;}
	.st9{fill:#F06B28;}
	.st10{fill:#E82670;}
	.st11{fill:#E93C59;}
	.st12{fill:#EB3463;}
	.st13{fill:#EB4749;}
	.st14{fill:#E8ECED;}
	.st15{fill:#FFFFFF;}
</style>
<g>
	<g>
		<path class="st0" d="M42.42,54.76c0,11.95-0.02,23.9,0.03,35.84c0,1.11-0.29,1.4-1.39,1.38c-5.04-0.06-10.07-0.05-15.11,0
			c-1.04,0.01-1.44-0.19-1.42-1.35c0.09-3.55,0.02-7.11,0.05-10.67c0.01-0.7-0.16-1.01-0.89-1.24c-5.57-1.72-8.92-6.21-9.1-12.11
			c-0.02-0.59-0.08-0.86-0.78-1.01c-6.19-1.33-9.38-6.13-8.29-12.39c0.09-0.5-0.04-0.82-0.39-1.15c-5.29-5.02-6.82-13.54-3.01-20.25
			c0.25-0.44,0.18-0.81,0.05-1.24c-1.92-6.5,0.46-12.52,6.3-15.85c0.51-0.29,0.73-0.66,0.91-1.16C11.91,6.23,19.02,1.4,26.3,2.02
			c8.3,0.71,14.55,6.3,15.88,14.27c0.18,1.1,0.22,2.23,0.22,3.34C42.42,31.34,42.42,43.05,42.42,54.76z M12.76,15.06
			c-1.45,0.04-2.73,0.52-3.85,1.43c-0.47-0.07-0.7,0.35-1,0.56c-3.56,2.47-5.65,7.63-4.42,11.97c0.42,1.51,1.04,2.87,1.85,4.17
			c0.35,0.55,0.29,0.93-0.2,1.31c-0.53,0.41-0.76-0.04-1.09-0.32c-0.29-0.25-0.32-0.73-0.78-0.83c-0.93,1.39-1.29,2.99-1.49,4.57
			c-0.55,4.37,0.68,8.3,3.36,11.76C5.41,50.03,6,50.92,6.7,49.87c0.36-0.55,0.85-1.02,1.35-1.46c0.39-0.35,0.76-0.89,1.43-0.48
			c-0.02,0.14,0.04,0.18,0.17,0.15c0.08,0.04,0.15,0.09,0.23,0.13c0,0.29,0,0.58,0,0.87c-3.68,3.06-3.99,9.13-0.5,12.34
			c0.84,1.01,1.89,1.69,3.15,2.05c0.4,0.15,0.8,0.34,1.21,0.46c0.62,0.18,1.08-0.02,1.27-0.68c0.21-0.71,0.43-1.42,0.65-2.13
			c0.41-0.09,0.73-0.66,1.26-0.13c0.48,0.49,0.29,0.99,0.11,1.44c-0.94,2.32-1.22,4.69-0.41,7.09c0.59,1.75,1.26,3.47,2.83,4.63
			c1.12,1.45,2.6,2.32,4.36,2.77c1.7,0.85,3.51,0.49,5.29,0.51c0.4,0,1-0.3,1.14,0.47c0.14,0.75-0.25,1.16-0.89,1.26
			c-0.78,0.13-1.59,0.14-2.38,0.14c-0.57,0-0.76,0.21-0.76,0.77c0.02,3.11,0.02,6.23,0,9.34c-0.01,0.66,0.21,0.92,0.89,0.91
			c4.31-0.04,8.62-0.04,12.94-0.05c1,0,0.6-0.78,0.6-1.22c0.02-8.74,0.02-17.48,0.02-26.21c0-0.2-0.01-0.4,0-0.6
			c0.02-0.42-0.1-0.66-0.58-0.7c-1.13-0.09-2.13-0.57-3.07-1.18c-1.44-1.42-2.46-3.04-2.13-5.17c0.14-0.91,0.22-1.95,1.39-2.27
			c0.71,0.31,0.81,0.74,0.57,1.51c-0.67,2.16,0.29,4.3,2.15,5.1c1.25,0.53,1.67,0.27,1.67-1.07c0-12.29-0.02-24.57,0.03-36.86
			c0-1.03-0.39-1.47-1.25-1.63c-1.46-0.28-2.74,0.05-3.7,1.26c-0.94,0.57-1.22,1.52-1.36,2.5c-0.09,0.68-0.17,1.43-0.99,1.29
			c-0.81-0.13-0.8-0.89-0.71-1.62c0.21-1.62,1.12-2.82,2.16-3.97c1.45-0.93,3.01-1.47,4.74-1.08c0.94,0.21,1.06-0.14,1.04-0.96
			c-0.03-0.86-0.27-1.64-0.49-2.45c-0.81-3.02-2.34-5.59-4.83-7.54c-0.82-0.85-1.78-1.49-2.88-1.93c-1.98-1.27-4.23-1.62-6.49-1.85
			c-0.68-0.07-1.42-0.2-2.08,0.19c-1.5,0.2-3.03,0.29-4.35,1.16c-0.77,0.08-1.38,0.48-1.94,0.98c-0.33-0.01-0.51,0.17-0.6,0.47
			c-0.19-0.05-0.35,0.01-0.45,0.18c-2.36,1.52-3.89,3.72-5.08,6.19c-0.11,0.22-0.35,0.89,0.33,0.66c1.68-0.57,3.4-0.22,5.09-0.33
			c1.18,0.55,1.23,1,0.23,1.92C15.63,14.72,14.19,14.39,12.76,15.06z"/>
		<path class="st1" d="M72.78,10.88c1.85,1.59,3.72,3.17,5.32,5.04c0.21,0.25,0.61,0.36,0.95,0.47c0.6,0.19,1.03,0.62,1.06,1.18
			c0.06,1.19,0.76,2.07,1.33,3c0.69,1.12,1.33,2.26,1.9,3.44c0.27,0.55,0.55,1.05,1.32,1.22c1.01,0.22,1.85,1.6,1.38,2.44
			c-0.95,1.67,0.05,3.07,0.27,4.58c0.08,0.55,0.22,1.09,0.34,1.63c0.26,1.2,0.36,2.35,1.64,3.19c1.73,1.14,1.76,3.55,0.15,4.83
			c-0.86,0.68-1.16,1.41-1.2,2.38c-0.06,1.6-0.36,3.16-0.64,4.73c-0.09,0.49,0.02,0.89,0.32,1.33c1.22,1.8,0.71,3.55-1.3,4.32
			c-0.64,0.25-0.92,0.6-1.17,1.16c-0.48,1.07-1.04,2.11-1.56,3.17c-0.04,0.07-0.09,0.16-0.08,0.22c0.53,2.38-1.91,3.04-2.72,4.64
			c-0.34,0.66-0.87,1.24-1.34,1.82c-0.63,0.78-1.28,1.46-1.19,2.66c0.08,1.11-0.94,1.91-2.05,1.83c-0.8-0.06-1.3,0.29-1.91,0.72
			c-1.18,0.83-2.16,2.03-3.71,2.26c-0.1-0.49-0.35-0.95-0.26-1.48l0.1-0.02l0.1,0c0.28-0.03,0.65,0.14,0.82-0.17
			c0.13-0.25-0.17-0.25-0.33-0.31c0.53-0.42,1.06-0.83,1.57-1.25c2.12-1.73,2.12-1.73-0.14-3.26c0.14-0.57,0.95-0.63,0.99-1.28
			c1.07,0.81,2.45,1.06,3.41,0.35c1.26-0.93,2.15-2.36,3.08-4.01c-2.99,0.75-5.71,1.44-8.38,2.32c-0.03-0.42,0.35-0.4,0.56-0.58
			c0.44-0.39,1.4-0.21,1.33-1.16c2.06-0.61,4.11-1.21,6.38-1.88c-0.36-0.17-0.49-0.23-0.63-0.29c-2.77-1.18-5.67-2.03-8.4-3.31
			c0.36-0.06,0.78,0.14,1.1-0.22c-0.22-0.38-0.88-0.18-0.85-0.75c0.34,0.1,0.69,0.17,1.02,0.3c2.56,0.96,5.12,1.93,7.68,2.9
			c0.25,0.1,0.53,0.31,0.77,0.07c0.21-0.21-0.03-0.43-0.12-0.64c-1.33-3.27-2.68-6.53-3.99-9.81c-0.29-0.72-0.58-0.72-1.1-0.22
			c-0.76,0.74-1.57,1.44-2.35,2.16c-0.04-0.39,0.14-0.89-0.49-0.97c0.58-0.6,1.14-1.2,1.73-1.79c1-1.01,1.02-1.39,0.09-2.5
			c-0.74-0.88-1.47-1.77-2.2-2.65c0.67-0.3,0.37-0.91,0.37-1.36c-0.01-0.66-0.15-1.32,0.02-1.98c0.22,0.09,0.43,0.26,0.65,0.26
			c3.34,0.02,6.67-0.26,10.01-0.47c0.45-0.03,0.62-0.29,0.75-0.63c0.15-0.41-0.2-0.58-0.43-0.76c-1.81-1.35-3.64-2.69-5.45-4.03
			c-1.12-0.83-1.88-0.69-2.62,0.49c-0.97,1.54-1.94,3.08-2.91,4.62c0.06-0.6-0.29-0.73-0.79-0.7c0.7-1.19,1.39-2.39,2.11-3.56
			c1.53-2.47,1.49-2.57-1.33-3.23c-0.1-0.05-0.2-0.09-0.3-0.14c-0.06,0.02-0.11,0.01-0.16-0.02c0.42-0.44,0.96-0.17,1.44-0.25
			c0.02,0.15,0.02,0.32,0.22,0.35c0.04,0.01,0.14-0.09,0.13-0.13c-0.03-0.2-0.2-0.2-0.35-0.22c0-0.16,0-0.31,0-0.47
			c1.52,0.53,2.73-0.36,2.88-1.83c0.08-0.75,0.33-1.47,0.47-2.22c0.36-1.96,0.33-1.91-1.5-2.77c-0.7-0.33-1.15-0.29-1.64,0.28
			c-0.34,0.39-0.77,0.69-1.16,1.03c-0.3-0.19-0.61-0.39-0.91-0.58c0.05-0.06,0.1-0.11,0.17-0.14c0.08-0.08,0.17-0.17,0.25-0.25
			c1.15-1.28,1.15-1.28,0-1.93c0.73-0.39,0.01-0.78,0-1.17c0.54,0.23,1.09,0.45,1.63,0.68c0.28,0.12,0.53,0.34,0.85,0.02
			c0.74-0.74,1.51-1.45,2.27-2.17c-0.84-0.08-1.55,0.07-2.28,0.2c-0.74,0.13-1.48,0.25-2.22,0.37c-0.08-0.33-0.17-0.66-0.25-1
			c1.54-0.34,3.09-0.68,4.63-1.01c0.97-0.21,1.13-0.54,0.51-1.23c-1.58-1.76-3.29-3.39-5.14-4.87
			C71.9,11.72,72.53,11.59,72.78,10.88z M77.02,48.41c-0.02-0.02-0.05-0.03-0.07-0.05c0.03,0.01,0.06,0.02,0.08,0.03
			c-0.12,0.61,0.27,1.07,0.48,1.57c1.14,2.82,2.31,5.62,3.54,8.58c0.77-1.07,1.08-2.14,1.57-3.12c0.35-0.7,0.51-1.27-0.13-1.93
			c-0.48-0.5-0.64-1.23-0.43-1.91c0.18-0.59,0.05-0.69-0.52-0.82c-0.56-0.13-1.06-0.53-1.58-0.8C78.98,49.45,78.12,48.7,77.02,48.41
			z M85.57,43.65c0.13-0.58-0.05-0.9-0.5-1.04c-0.65-0.19-1.1-1.06-2.01-0.38c-1.84,1.37-3.75,2.65-5.67,3.91
			c-0.67,0.44-0.5,0.69,0.04,0.98c1.49,0.82,2.97,1.66,4.36,2.66c0.82,0.59,2.72-0.31,3.01-1.3C85.27,46.87,85.28,45.18,85.57,43.65
			z M85.19,35.66c-0.37-1.9-0.59-3.87-1.39-5.65c-0.35-0.77-1.37-1.2-2.19-0.87c-1.39,0.56-2.68,1.35-3.99,2.09
			c-0.53,0.3-0.58,0.75-0.06,1.14c1.94,1.45,3.88,2.88,5.82,4.33c0.38,0.28,0.65,0.42,1.13,0.07C84.93,36.47,85.3,36.25,85.19,35.66
			z M83.06,40.78c-0.08-0.4-0.3-0.48-0.62-0.44c-0.48,0.05-0.95,0.11-1.43,0.11c-2.76,0.02-5.5,0.23-8.25,0.44
			c-0.92,0.07-0.92,0.46-0.43,1.06c0.84,1.01,1.71,2,2.54,3.02c0.54,0.66,1.14,0.68,1.79,0.25c1.99-1.32,3.97-2.65,5.95-3.99
			C82.78,41.1,83.06,41.04,83.06,40.78z M76.48,30.45c1.69-0.89,3.16-1.62,4.58-2.42c0.71-0.4,0.69-0.97-0.03-1.36
			c-0.95-0.5-1.95-0.9-2.92-1.36c-0.29-0.14-0.52-0.22-0.62,0.2C77.12,27.05,76.69,28.57,76.48,30.45z M78.7,19.69
			c-0.29,1.36-0.52,2.4-0.72,3.45c-0.07,0.35-0.09,0.74,0.32,0.94c1.2,0.57,2.4,1.12,3.88,1.81C81.29,23.57,80.15,21.75,78.7,19.69z
			 M77.45,19.86c-0.9,0.52-1.41,1.24-2.06,1.81c-0.23,0.2-0.63,0.41-0.38,0.75c0.34,0.45,0.92,0.63,1.45,0.74
			c0.35,0.08,0.37-0.37,0.42-0.61C77.09,21.71,77.24,20.86,77.45,19.86z"/>
		<path class="st2" d="M54.47,91.98c-0.72,0.01-1.44,0.05-2.16,0.03c-1.02-0.03-1.87,0.05-2.63,0.99c-0.93,1.14-2.51,0.99-3.57-0.1
			c-1.01-1.04-1.14-2.58-0.02-3.48c0.94-0.76,1.01-1.6,1-2.62c-0.03-2.96-0.01-5.91-0.01-8.87c0-0.62-0.12-1.12-0.57-1.62
			c-0.89-0.99-0.83-1.83,0.09-2.83c0.36-0.39,0.48-0.78,0.48-1.29c-0.01-3.47-0.01-6.95,0-10.42c0-0.55-0.14-0.92-0.64-1.28
			c-1.78-1.33-1.75-3.33,0.03-4.68c0.43-0.32,0.61-0.68,0.61-1.21c-0.02-2.52-0.02-5.03,0-7.55c0-0.56-0.22-0.95-0.58-1.37
			c-0.84-0.98-0.84-1.79,0.03-2.75c0.41-0.46,0.56-0.91,0.55-1.5c-0.02-1.8,0.16-3.61-0.06-5.39c-0.18-1.48-0.45-2.87,0-4.37
			c0.28-0.96,0.06-2.06,0.05-3.1c-0.01-1.16,0.16-2.25-1.03-3.18c-0.97-0.75-0.65-2.55,0.44-3.36c0.51-0.38,0.6-0.76,0.6-1.3
			c-0.02-1.2,0.24-2.46-0.06-3.58c-0.43-1.56-0.38-2.93-0.04-4.54c0.42-1.99,0.08-4.13,0.11-6.21c0.01-0.58-0.15-0.97-0.67-1.27
			c-1.1-0.64-1.41-1.67-1.17-2.87c0.25-1.28,1.07-2.02,2.34-2.21c1.22-0.19,2.29,0.27,2.83,1.33c0.36,0.69,0.75,0.78,1.38,0.79
			c0.91,0.01,1.84,0.02,2.68,0.46c-0.04,0.25,0.08,0.67-0.34,0.6c-0.67-0.1-0.89,0.3-1.1,0.79c-0.6,0.06-1.19-0.02-1.78-0.14
			c-0.39-0.08-0.68,0.07-0.92,0.4c-0.28,0.38-0.09,0.64,0.14,0.95c0.96,1.26,1.93,2.52,2.82,3.83c0.44,0.65,0.77,0.25,1.17,0.05
			c0.28,0.26,0.57,0.52,0.48,0.96c-0.62,0.47-0.24,0.93,0.01,1.39c-0.25,0.3-0.58,0.56-0.5,1.02c-0.55-0.16-0.58-1.38-1.24-0.93
			c-1.23,0.84-2.46,1.73-3.58,2.92c1.08,0.26,2.04,0.24,2.91,0.62c0.54,0.88,1.24,0.5,1.92,0.25c0.35-0.05,0.66,0.06,0.96,0.22
			c-0.07,0.58-0.52,0.46-0.9,0.5c-0.5,0.04-1.03-0.14-1.5,0.17c-0.98-0.14-1.97-0.28-2.95-0.41c-0.84-0.11-1.31,0.25-1.31,1.12
			c-0.01,1.32,0,2.64,0,3.95c0,0.42,0.04,0.81,0.48,1.01c0.4,0.18,0.67-0.11,0.96-0.31c1.27-0.89,2.41-1.96,3.78-2.71
			c0.18,0.29,0.35,0.58,0.52,0.86c-1.19,0.92-2.34,1.88-3.57,2.73c-0.63,0.44-0.61,0.97-0.51,1.55c0.13,0.74,0.85,0.59,1.32,0.8
			c0.6,0.27,0.86-0.17,1.11-0.58c0.59-0.98,1.18-1.96,1.77-2.94c0.41,0.22,0.53,0.62,0.59,1.04c-0.33,1.09-1.28,1.89-1.45,3.05
			c-0.24,0.33-0.49,0.67-0.73,1c-1.17,1.98-2.3,3.99-3.51,5.94c-0.53,0.86-0.22,1.06,0.61,1.25c1.12,0.25,2.31,0.22,3.38,0.68
			c0.02,0.32,0.22,0.42,0.51,0.5c0.77,0.22,0.12,0.43-0.03,0.63c-1.37-0.22-2.74-0.44-4.1-0.66c-0.83-0.13-1.15,0.24-1.14,1.06
			c0.03,1.91,0,3.81,0.02,5.72c0,0.3-0.14,0.71,0.25,0.83c0.35,0.11,0.55-0.25,0.78-0.46c1.24-1.1,2.48-2.21,3.72-3.31
			c0.29-0.01,0.46-0.16,0.48-0.45c0.06-0.05,0.12-0.09,0.19-0.12c0.18,0.34,0.32,0.69,0.29,1.08c-1.2,1.46-2.79,2.5-4.08,3.86
			c-0.74,0.78-0.61,1.09,0.4,1.45c0.97,0.35,2.06,0.32,2.96,0.89c-0.42,0.33,0.09,0.68-0.03,1.02c-1.05-0.23-2.1-0.45-3.14-0.7
			c-1.05-0.25-1.81,0.24-1.82,1.3c-0.03,2.59-0.01,5.18-0.01,7.78c0,0.32-0.01,0.66,0.34,0.83c0.43,0.2,0.65-0.15,0.9-0.39
			c0.8-0.77,1.39-1.75,2.3-2.42c0.16,0.33,0.75,0.21,0.73,0.72c-0.29,0.37-0.56,0.74-0.87,1.1c-0.9,1.03-2.26,1.88-1.37,3.6
			c0.06,0.11-0.03,0.31-0.08,0.46c-0.26,0.73,0.08,1.16,0.64,1.61c1.14,0.91,2.23,1.9,3.33,2.86c-0.17,0.25-0.33,0.49-0.5,0.74
			c-0.06,0-0.13-0.02-0.19-0.04c-0.02-0.54-0.11-0.96-0.75-0.43c-0.95-0.78-1.9-1.56-2.84-2.35c-0.33-0.27-0.59-0.63-1.13-0.37
			c-0.57,0.28-0.51,0.75-0.51,1.22c0,3.06,0,6.13,0,9.19c0,0.66,0,1.32,0,2.3c1.91-1.72,3.57-3.22,5.24-4.72
			c0.31,0.25,0.56,0.54,0.49,0.98c-1.22,1.18-2.43,2.39-3.68,3.55c-1.25,1.17-1.24,2.56,0.08,3.67c1.15,0.97,2.29,1.95,3.32,3.05
			c-0.24,0.25-0.47,0.51-0.71,0.76c-1.29-1.13-2.58-2.25-3.87-3.37c-0.17-0.15-0.43-0.37-0.59-0.33c-0.33,0.08-0.27,0.44-0.27,0.71
			c0,3.39,0,6.79,0,10.18c0,0.32-0.03,0.69,0.31,0.84c0.46,0.2,0.6-0.25,0.84-0.49c1.17-1.18,2.35-2.37,3.52-3.55
			c0.4,0,0.56,0.37,0.86,0.54c-0.88,0.97-1.8,1.91-2.62,2.93c-0.49,0.61-1.66,1-1.3,1.89c0.34,0.86,1.45,0.21,2.18,0.43
			C53,91.13,53.6,91.72,54.47,91.98z M49.1,5.49c-0.11,0.05-0.21,0.1-0.32,0.16c0,2.3,0,4.61,0,6.91c0,0.58,0.24,0.75,0.73,0.38
			c0.91-0.7,1.81-1.44,2.73-2.14c0.3-0.22,0.5-0.51,0.28-0.8C51.39,8.49,50.4,6.86,49.1,5.49z M48.78,30.71
			c0.1,0.02,0.2,0.05,0.3,0.07c0.77-1.34,1.54-2.67,2.3-4.01c0.13-0.23,0.39-0.53,0.09-0.73c-0.5-0.34-1.1-0.55-1.7-0.37
			c-0.47,0.15-0.99,0.39-0.99,1.04C48.78,28.03,48.78,29.37,48.78,30.71z"/>
		<path class="st3" d="M53.74,46.31c0.12-0.34-0.39-0.69,0.03-1.02c0.88,0.2,1.76,0.38,2.64,0.57c0.98,0.22,1.01-0.21,0.91-0.9
			c-0.28-1.92-0.43-3.86-0.46-5.8c-0.01-0.49-0.01-1.02-0.54-1.22c-0.5-0.19-0.74,0.32-1.07,0.58c-0.25,0.19-0.5,0.38-0.76,0.56
			c0.03-0.4-0.12-0.74-0.29-1.08c1.4-1.5,1.34-2.2-0.19-2.62c0.15-0.21,0.8-0.41,0.03-0.63c-0.29-0.08-0.49-0.18-0.51-0.5
			c0.94,0.19,1.83,0.3,2.37-0.81c0.12-0.25,0.49-0.39,0.78-0.52c0.34-0.15,0.47-0.37,0.48-0.73c0.04-1.23,0.09-2.47,0.18-3.7
			c0.05-0.67-0.18-1.03-0.85-1.19c-1.16-0.28-2.3-0.62-3.45-0.93c0.24-0.33,0.49-0.67,0.73-1c0.96,0.26,1.92,0.5,2.88,0.77
			c0.41,0.12,0.7,0.11,0.7-0.44c-0.01-2.17,0-4.34,0-6.65c-1.08,0.98-1.28,2.33-2.12,3.27c-0.07-0.42-0.18-0.81-0.59-1.04
			c0.14-0.69,0.97-1.08,0.81-1.9c0.1-0.1,0.21-0.2,0.31-0.29c-0.05-0.02-0.1-0.05-0.14-0.07c-0.05,0.13-0.1,0.25-0.15,0.38
			c-0.39-0.12-0.62,0.25-0.95,0.32c-0.18-0.29-0.35-0.58-0.52-0.86c0.59-0.83,1.72-1.09,2.28-2c-1.06-0.54-2.22-0.17-3.21-0.65
			c0.47-0.31,1-0.13,1.5-0.17c0.38-0.03,0.83,0.08,0.9-0.5c0.32-0.08,0.69,0.15,1.02-0.15c-0.09-0.39-0.61-0.54-0.56-0.99
			c0.08-0.93-0.06-1.71-1.26-1.68c-0.06-0.09-0.11-0.17-0.17-0.26c-0.08-0.46,0.25-0.72,0.5-1.02c0.98,1.03,1.52,2.42,2.82,3.4
			c0.61-2.74,1.18-5.34,1.76-7.94c-0.08-0.04-0.16-0.08-0.24-0.12c-1.45,1.09-2.9,2.18-4.34,3.27c0.09-0.44-0.2-0.7-0.48-0.96
			c1.24-0.99,2.47-1.98,3.71-2.97c0.21-0.17,0.56-0.29,0.5-0.61c-0.06-0.37-0.44-0.42-0.75-0.48c-1.63-0.35-3.26-0.68-4.9-1.02
			c0.2-0.49,0.42-0.89,1.1-0.79c0.42,0.06,0.3-0.36,0.34-0.6c0.8-0.01,1.56,0.16,2.34,0.31c1.06,0.21,2.08,0.83,3.3,0.24
			c0.73-0.36,1.67-0.15,2.02,0.88c-0.92,0.37-0.1,0.61,0.08,0.85c0.4,0.54,1.31,0.88,0.62,1.8c-1.43-0.38-1.92-0.12-2.3,1.28
			c-0.28,1.07-0.59,2.14-0.76,3.24c-0.2,1.25-0.76,2.45-0.67,3.85c0.74-0.36,1.37-0.66,2-0.97c0.38,0.09,0.92-0.16,1.02,0.49
			c-0.55,0.34-1.11,0.67-1.66,1.02c-0.29,0.18-0.7,0.4-0.61,0.74c0.07,0.28,0.39,0.56,0.77,0.63c0.23,0.04,0.44,0.13,0.66,0.2
			c-0.48,0.07-0.62,0.4-0.61,0.83c-0.26,0.01-0.54-0.15-0.8,0.08c0.76,1.22,1.52,2.45,2.27,3.67c-0.1,0.49,0.19,1.06-0.28,1.49
			c-1.05-1.53-2.1-3.05-3.14-4.58c-0.2,1.38-0.2,2.65-0.21,3.92c-0.01,1.3-0.47,2.85,0.07,3.84c0.57,1.03,2.37,0.78,3.55,1.32
			c0,0.39-0.01,0.78-0.01,1.18c-0.26-0.12-0.52-0.24-0.78-0.35c0.14-0.11,0.34-0.29,0.1-0.4c-0.21-0.1-0.25,0.18-0.28,0.35
			c-0.62,0.04-1.17-0.21-1.74-0.39c-0.69-0.23-1.16-0.16-1.12,0.77c0.04,1.03,0.04,2.07-0.02,3.11c-0.03,0.59,0.24,0.84,0.72,1.07
			c0.49,0.23,0.94,0.42,1.42,0c0.36-0.31,0.71-0.64,1.2-0.75c-0.07,0.51-0.65,0.86-0.46,1.45c-1.27,1.16-1.27,2.06-0.01,2.65
			c-0.61,0.1-0.12,0.74-0.47,0.97c-0.98-0.51-1.41,0.64-2.21,0.71c-0.59,0.05-0.64,0.43-0.57,0.95c0.23,1.77,0.38,3.55,0.41,5.34
			c0.03,1.53,0.5,1.79,1.83,1.07c1.28-0.69,2.47-1.57,3.85-2.09c0.41,0.06,0.95-0.13,1.02,0.56c-1.46,1.15-3.18,1.89-4.76,2.86
			c-0.99,0.61-1,0.74-0.05,1.42c-0.34,0.52,0.72,0.94,0.1,1.48c-0.43-0.33-0.86-0.66-1.52-1.17c0.07,5.17-0.49,10.09-0.51,15.35
			c1.15-1.42,2.09-2.58,3.03-3.74c0.37,0.03,0.78,0.02,0.84,0.54l0-0.01c-0.63,0.19-1.04,0.55-0.95,1.27
			c-0.44,1.09-1.5,1.77-1.93,2.92c0.68,0.26,1.28,0.04,1.89-0.04c0.38,0.33,0.94-0.04,1.24,0.26c0.33,0.47-0.72,0.14-0.24,0.64
			c-0.69,0.16-1.38,0.31-2.07,0.48c-1.29,0.31-1.36,0.48-0.64,1.54c0.35,0.51,0.71,1.02,1.06,1.53c-0.49,0.16,0.52,1.17-0.56,0.99
			c-0.49-0.61-0.97-1.23-1.46-1.83c-0.7-0.86-1.55-0.93-2.4-0.21c-0.54,0.46-1.08,0.91-1.63,1.36c0.07-0.44-0.18-0.73-0.49-0.98
			c0.17-0.17,0.35-0.35,0.52-0.52c0.06-0.06,0.12-0.12,0.18-0.18c0.08-0.04,0.15-0.08,0.23-0.12c0.06,0.17,0.05,0.47,0.29,0.39
			c0.22-0.08,0.46-0.3,0.54-0.52c0.1-0.24-0.2-0.25-0.37-0.3c0.78-1.11,0.7-1.54-0.26-2.44c-0.35-0.32-0.9-0.52-0.94-1.12
			c0.17-0.25,0.33-0.49,0.5-0.74c0.5,0.38,1.01,0.74,1.5,1.13c0.62,0.5,0.91,0.37,0.93-0.42c0.04-1.07,0.13-2.14,0.14-3.21
			c0.03-3.89,0.43-7.77,0.33-11.66c0.02-0.03,0.04-0.05,0.06-0.08c-0.01,0.03-0.03,0.06-0.04,0.1c-0.5,0.19-0.77,0.66-1.14,1
			c-1.21,1.11-2.07,2.56-3.43,3.52c0.02-0.5-0.57-0.39-0.73-0.72c1.39-1.51,2.76-3.04,4.19-4.51c0.61-0.63,0.7-0.92-0.27-1.19
			C55.4,46.77,54.5,46.78,53.74,46.31z"/>
		<path class="st4" d="M59.98,70.23c1.08,0.18,0.08-0.83,0.56-0.99c0.76,0.97,1.5,1.95,2.27,2.9c0.62,0.77,1.8,0.73,2.15-0.1
			c0.89-2.14,1.71-4.32,2.57-6.48c0.31-0.78-0.03-0.78-0.65-0.67c-1.56,0.29-3.13,0.53-4.69,0.79c-0.48-0.5,0.57-0.17,0.24-0.64
			c-0.3-0.3-0.86,0.07-1.24-0.26c1.83-0.36,3.66-0.7,5.48-1.1c1.13-0.24,1.33-0.68,0.97-1.78c-0.21-0.64-0.49-1.27-0.6-1.93
			c-0.2-1.24-0.73-1.89-2.12-1.8c-0.55,0.03-0.86,0.17-1.17,0.55c-0.52,0.64-0.88,1.42-1.57,1.93c-0.07-0.51-0.47-0.5-0.84-0.54
			c0.46-0.64,0.89-1.32,1.4-1.92c0.5-0.59,0.59-1.09,0.14-1.8c-0.64-1.01-0.61-2.16-0.07-3.19c0.28-0.52,0.15-0.77-0.18-1.11
			c-0.77-0.8-1.65-1.51-2.29-2.43c0.61-0.54-0.44-0.96-0.1-1.48c1.25,0.73,2.05,1.93,3.02,2.94c0.44,0.46,0.83,0.6,1.34,0.33
			c1.24-0.65,2.39-0.42,3.47,0.32c0.55,0.38,0.91,0.24,1.35-0.17c0.75-0.7,1.54-1.35,2.32-2.01c0.63,0.09,0.45,0.59,0.49,0.97
			c-0.53,0.82-1.36,1.32-2.06,1.95c-0.93,0.84-0.87,2.46,0.14,3.3c-0.03,0.57,0.63,0.37,0.85,0.75c-0.32,0.36-0.74,0.16-1.1,0.22
			c-1.52-0.15-2.47,1.01-2,2.46c0.28,0.87,0.51,1.76,0.83,2.62c0.29,0.78,0.85,1.17,1.74,0.92c0.69-0.2,1.39-0.34,2.09-0.5
			c0.07,0.95-0.89,0.77-1.33,1.16c-0.2,0.18-0.59,0.17-0.56,0.58c0.57,0.53,1.38,0.73,1.9,1.34c-0.04,0.65-0.84,0.71-0.99,1.28
			c-0.55-0.32-1.11-0.62-1.63-0.97c-0.77-0.52-1.19-0.3-1.51,0.53c-0.8,2.07-1.66,4.11-2.49,6.17c-0.1,0.25-0.24,0.54,0.01,0.77
			c0.26,0.23,0.55,0.02,0.77-0.09c0.92-0.44,1.81-0.92,2.71-1.39c-0.09,0.52,0.17,0.99,0.26,1.48c-0.35,0.86-1.31,0.85-1.94,1.33
			c-0.51,0.39-1.07,0.65-1.27,1.32c-0.05,0.19-0.14,0.4-0.29,0.52c-1.85,1.61-1.33,3.47-0.56,5.35c0.19,0.48,0.3,0.97-0.02,1.37
			c-1.03,1.29-0.36,2.77-0.5,4.15c-0.03,0.3,0.31,0.42,0.54,0.58c1.62,1.14,1.96,2.53,1,3.96c-0.92,1.37-2.48,1.61-4.1,0.63
			c-0.97-0.58-4.54-0.52-5.37,0.1c-0.02-0.53,0.26-0.69,0.75-0.67c0.56,0.02,1.13-0.06,1.67,0.01c1.18,0.16,1.61-0.33,1.42-1.46
			c0.84-0.76,0.93-1.55,0.25-2.25c-0.66-0.68-1.34-1.34-2.01-2.01c0.41-0.23,0.31-0.63,0.32-0.98c1.02,0.57,1.71,1.52,2.59,2.24
			c0.22,0.18,0.39,0.58,0.78,0.39c0.37-0.17,0.44-0.53,0.43-0.91c-0.01-0.91,0-1.83,0-2.74c0-0.78-0.38-1.16-1.17-1.16
			c-1.19,0-2.39-0.02-3.58-0.03c0.44-0.37,0.97-0.21,1.46-0.19c0.7,0.03,1.03-0.21,0.95-0.93c0.4-0.01,0.8-0.05,1.19-0.04
			c0.74,0.02,1.13-0.34,1.15-1.06c0.02-1,0.01-1.99,0-2.99c0-0.24,0-0.51-0.24-0.64c-0.33-0.17-0.5,0.13-0.7,0.3
			c-0.79,0.67-1.57,1.34-2.35,2.01c0.01-0.44-0.02-0.86-0.26-1.25c0.75-0.74,1.94-1.22,2.14-2.28c0.26-1.39,0.29-2.87-0.99-3.99
			C60.66,71.43,60.37,70.78,59.98,70.23z"/>
		<path class="st4" d="M62.16,28.91c0-0.39,0.01-0.78,0.01-1.18c0.78-0.04,1.4,0.59,2.18,0.53c0.21-0.02,0.47,0.27,0.63-0.03
			c0.13-0.24-0.08-0.44-0.21-0.64c-0.96-1.45-1.92-2.9-2.88-4.36c0.47-0.42,0.18-0.99,0.28-1.49c1.21,1.74,2.43,3.48,3.7,5.31
			c0.61-1.24,0.56-2.49,0.82-3.67c0.08-0.37-0.12-0.57-0.45-0.73c-0.93-0.47-1.42-1.26-1.47-2.28c-0.03-0.56-0.28-0.81-0.8-1.01
			c-1.1-0.43-2.26-0.73-3.28-1.36c0-0.43,0.13-0.76,0.61-0.83c1.01,0.35,2.03,0.7,3.04,1.06c0.38,0.13,3.44-1.28,3.55-1.66
			c0.02-0.08,0.01-0.16,0.02-0.24c0.21-1.25,0.41-2.51,0.62-3.76c0.06-0.39,0.21-0.82-0.15-1.12c-0.43-0.36-0.73,0.11-1.05,0.28
			c-1.75,0.92-3.34,2.13-5.19,2.87c-0.11-0.65-0.65-0.4-1.02-0.49c1.78-1.33,3.79-2.28,5.69-3.42c0.34-0.2,0.84-0.33,0.82-0.91
			c-0.02-0.57-0.49-0.68-0.85-0.88c-1.31-0.73-2.74-1.25-3.94-2.18c0.68-0.91-0.22-1.26-0.62-1.8c-0.19-0.25-1-0.49-0.08-0.85
			c0.34,0.56,0.81,0.89,1.43,1.14c1.06,0.43,2.08,0.97,3.09,1.52c1.01,0.55,1.9,1.06,3.2,0.67c1.27-0.38,2.46,0.74,2.58,2.13
			c0.04,0.48,0.1,0.94,0.32,1.37c-0.25,0.71-0.87,0.83-1.5,0.95c-1.1,0.12-1.63,0.71-1.7,1.84c-0.06,0.91-0.28,1.8-0.42,2.7
			c-0.17,1.07,0.98,2.45,2.12,2.57c0.08,0.33,0.17,0.66,0.25,1c-0.21,0.31-0.8,0.01-0.86,0.46c-0.04,0.33,0.34,0.37,0.6,0.44
			c0.01,0.39,0.73,0.78,0,1.17c-0.83-0.27-3.01,0.62-3.18,1.43c-0.23,1.11-0.26,2.27-0.39,3.61c1.19-1.02,2.17-1.87,3.15-2.72
			c0.3,0.19,0.61,0.39,0.91,0.58c-1.25,1.06-2.41,2.22-3.56,3.4c-0.6,0.61-0.41,0.79,0.27,0.99c1.4,0.42,2.89,0.54,4.24,1.13
			c0,0.16,0,0.31,0,0.47v0c-0.48,0.07-1.02-0.19-1.44,0.25c-0.97-0.23-1.93-0.46-2.9-0.68c-0.82-0.18-1.14,0.04-0.81,0.92
			c0.78,2.09,1.53,4.19,2.27,6.29c0.21,0.6,0.5,0.94,1.11,0.42c0.5-0.04,0.85,0.1,0.79,0.7c0,0.17,0,0.34,0,0.52
			c-0.17,0.66-0.03,1.32-0.02,1.98c0.01,0.46,0.31,1.06-0.37,1.36c-0.98-0.27-2.02-0.81-2.98-0.49c-1.18,0.39-2.23,1.15-3.34,1.75
			c-0.07-0.69-0.61-0.49-1.02-0.56c1.16-0.71,2.33-1.42,3.49-2.14c0.25-0.16,0.65-0.23,0.62-0.64c-0.04-0.45-0.43-0.49-0.77-0.62
			c-2.22-0.85-4.43-1.71-6.65-2.57c0.36-0.23-0.14-0.87,0.48-0.97c2.23,0.83,4.47,1.65,6.7,2.48c0.3,0.11,0.61,0.29,0.88,0
			c0.22-0.23,0.1-0.53,0-0.79c-0.78-2.17-1.56-4.34-2.32-6.51c-0.26-0.74-0.57-0.74-1.22-0.34c-1.34,0.84-2.55,1.89-4.03,2.5
			c-0.19-0.59,0.39-0.94,0.46-1.45c0.81-0.77,1.82-1.26,2.73-1.9c0.2-0.14,0.4-0.29,0.37-0.57c-0.03-0.3-0.28-0.34-0.52-0.39
			C63.55,29.28,62.86,29.09,62.16,28.91z"/>
		<path class="st5" d="M44.77,96.86c4.55,0,9.1,0,13.65,0c1.04,0,1.87,0.34,2.33,1.34c0.38,0.81,0.25,1.56-0.27,2.25
			c-0.59,0.79-1.46,0.89-2.36,0.89c-4.47,0-8.94,0-13.41,0c-4.51,0-9.02,0.01-13.53-0.01c-1.55-0.01-2.47-0.7-2.62-1.9
			c-0.19-1.52,0.81-2.55,2.56-2.56C35.67,96.85,40.22,96.86,44.77,96.86z"/>
		<path class="st5" d="M44.81,105.03c4.47,0,8.94,0,13.41-0.01c0.74,0,1.44,0.1,2.01,0.6c1.25,1.1,0.85,3.15-0.73,3.69
			c-0.4,0.14-0.86,0.16-1.29,0.16c-8.98,0.01-17.96,0.01-26.95,0.01c-1.59,0-2.51-0.63-2.69-1.81c-0.25-1.56,0.79-2.63,2.59-2.64
			C35.71,105.02,40.26,105.03,44.81,105.03z"/>
		<path class="st5" d="M44.72,113.18c3.31,0,6.62,0.02,9.93-0.01c0.78-0.01,0.96,0.14,0.68,0.93c-1.52,4.29-5.89,7.31-10.65,7.29
			c-4.71-0.02-9.05-3.03-10.54-7.27c-0.24-0.68-0.24-0.96,0.64-0.95C38.1,113.21,41.41,113.18,44.72,113.18z"/>
		<path class="st3" d="M61.21,81.78c0.08,0.72-0.25,0.96-0.95,0.93c-0.48-0.02-1.01-0.17-1.46,0.19c-0.08,0.09-0.16,0.18-0.24,0.27
			c-0.03,0.02-0.09,0.04-0.09,0.06c0.01,0.06,0.03,0.12,0.05,0.18c0.18,0.73,0.63,1.27,1.23,1.7c-0.02,0.36,0.09,0.76-0.32,0.98
			c-0.53-0.22-0.89-0.65-1.27-1.05c-0.25-0.25-0.49-0.56-0.91-0.35c-0.39,0.19-0.4,0.55-0.4,0.92c0,0.95-0.01,1.91,0,2.86
			c0.01,1.05,0.79,1.82,1.85,1.85c0.83,0.02,1.67,0.02,2.5,0.03c0.19,1.13-0.24,1.62-1.42,1.46c-0.55-0.07-1.12,0.01-1.67-0.01
			c-0.49-0.02-0.77,0.15-0.75,0.67c-1.18,0.82-1.68,0.73-2.89-0.5c-0.87-0.26-1.47-0.85-1.9-1.62c2.4,0.13,3.35-0.69,3.09-3.21
			c-0.05-0.47,0-0.96-0.01-1.43c0-0.35,0.06-0.75-0.31-0.97c-0.48-0.29-0.7,0.19-1.03,0.37c-0.29-0.17-0.46-0.55-0.86-0.54
			c0.33-0.48,0.71-0.91,0.25-1.57c-0.28-0.39-0.24-0.93,0-1.37c0.23-0.43,0.09-0.74-0.19-1.06c0.24-0.25,0.47-0.51,0.71-0.76
			c1.21,0.25,2.45-0.2,3.67,0.09c0.15,0.04,0.37-0.26,0.57-0.39c0.32-0.21,0.5-0.63,0.94-0.68c0.27-0.04,0.36-0.22,0.37-0.47
			c0.08-0.08,0.16-0.16,0.24-0.25c0.23,0.38,0.27,0.81,0.26,1.24c-0.32,0.51-0.8,0.85-1.25,1.22c-0.26,0.21-0.48,0.41-0.33,0.79
			c0.14,0.38,0.47,0.39,0.78,0.4C60.03,81.8,60.62,81.78,61.21,81.78z"/>
		<path class="st6" d="M40.03,90.29c-4.31,0.01-8.62,0.02-12.94,0.05c-0.68,0.01-0.9-0.25-0.89-0.91c0.02-3.11,0.02-6.23,0-9.34
			c0-0.57,0.19-0.77,0.76-0.77c0.8,0,1.6-0.01,2.38-0.14c0.64-0.1,1.03-0.51,0.89-1.26c-0.15-0.77-0.74-0.47-1.14-0.47
			c-1.78-0.02-3.59,0.34-5.29-0.51c0.18-0.65,0.2-1.26,0.06-1.96c-0.17-0.86,0.12-1.76,0.15-2.65c0.02-0.45,1.19,0.16,1.66-0.44
			c1.3-0.39,2.49-0.96,3.28-2.12c0.28-0.42,0.38-0.99-0.03-1.3c-0.41-0.31-0.94-0.29-1.35,0.24c-0.2,0.26-0.39,0.61-0.8,0.65
			c-0.54-0.22-0.6-0.67-0.6-1.19c0.01-10.99,0-21.98,0.01-32.96c0-0.38-0.11-0.84,0.47-0.94c0.87,0.84,2.06,1.14,3.01,1.83
			c-0.58,0.26-0.61,0.76-0.6,1.3c0.01,2.62,0.02,5.24,0,7.87c-0.01,0.72,0.23,1.22,0.93,1.46c0.05,0.29-0.2,0.4-0.32,0.59
			c-1.04,1.65-1.49,3.38-0.74,5.3c0.26,0.67,0.6,1.07,1.3,0.82c0.66-0.24,0.43-0.77,0.32-1.3c-0.26-1.2-0.53-2.43,0.43-3.49
			c-0.02,0.8,0.61,1.45,0.51,2.3c-0.06,0.5-0.57,0.81-0.44,1.32c0.76,3.13,0.29,6.32,0.42,9.48c-0.64-0.15-1.25-0.01-1.85,0.2
			c-0.53,0.18-1.15,0.27-0.98,1.05c0.16,0.75,0.72,0.65,1.3,0.59c0.58-0.06,1.18-0.02,1.76-0.02c0.34,2.43,0.23,4.88,0.24,7.33
			c0,0.38,0.02,0.73,0.5,0.8c0.01,0.44,0.02,0.88,0.03,1.32c-0.44,0.56-0.57,1.18-0.54,1.89c0.04,1.31,0.05,2.63,0,3.94
			c-0.04,0.91,0.01,1.76,0.73,2.43c-0.64-0.01-1.27,0.02-1.91-0.03c-0.52-0.04-0.91,0.17-1.01,0.63c-0.1,0.42,0.25,0.67,0.6,0.91
			c0.5,0.34,1.06,0.32,1.6,0.42c0,1.5,0,3.01,0,4.51c0,2.44,0.02,2.45,2.53,2.42c0.04,0,0.08,0,0.12-0.01
			C36.4,90.23,38.23,89.96,40.03,90.29z"/>
		<path class="st7" d="M9.87,48.21c-0.08-0.04-0.15-0.09-0.23-0.13C9.6,48,9.55,47.95,9.47,47.93c-0.66-0.4-1.04,0.14-1.43,0.48
			c-0.49,0.44-0.99,0.91-1.35,1.46C6,50.92,5.41,50.03,5.13,49.68c-2.68-3.46-3.91-7.39-3.36-11.76c0.2-1.58,0.56-3.17,1.49-4.57
			c0.45,0.11,0.49,0.59,0.78,0.83c0.32,0.28,0.55,0.73,1.09,0.32c0.49-0.38,0.55-0.76,0.2-1.31c-0.82-1.3-1.43-2.66-1.85-4.17
			c-1.22-4.35,0.86-9.5,4.42-11.97c0.3-0.21,0.53-0.62,1-0.56c0.79-0.08,1.01,0.31,0.99,1.05c-0.05,1.38-0.03,2.76,0,4.14
			c0.01,0.39-0.2,0.92,0.45,1.06c-1.16,1.97-1.66,4.07-1.31,6.35c-0.1,0.66,0.19,1.39,0.12,1.91c-0.12,0.95,0.91,2.45-0.96,2.9
			c-0.35,0.08-0.16,0.45,0.1,0.64c-2.98,1.85-3.54,6.82-0.26,9.06c0.31,0.21,0.81,0.19,0.93,0.67C9.53,45.52,9.9,46.82,9.87,48.21z"
			/>
		<path class="st8" d="M35.73,21.24c0.96-1.22,2.24-1.54,3.7-1.26c0.86,0.17,1.26,0.6,1.25,1.63c-0.05,12.29-0.03,24.57-0.03,36.86
			c0,1.33-0.42,1.6-1.67,1.07c-1.86-0.79-2.82-2.94-2.15-5.1c0.24-0.77,0.14-1.2-0.57-1.51c0.31-1.12,0.21-2.27,0.25-3.41
			c0.02-0.61-0.21-1.27,0.2-1.84c0.54,0.38,1.11,0.55,1.49-0.16c0.34-0.61-0.02-1.04-0.55-1.37c-0.16-0.1-0.29-0.26-0.44-0.39
			c0.65-0.12,0.48-0.64,0.48-1.04c0.01-3.72,0.01-7.45,0-11.17c0-0.35,0.08-0.73-0.27-0.98c0.29-1.42,0.53-2.85,0.26-4.31
			c-0.25-1.34-0.64-1.7-1.9-1.65C36.13,24.82,36.21,23.03,35.73,21.24z"/>
		<path class="st9" d="M35.73,21.24c0.48,1.79,0.39,3.58,0.05,5.37c-0.43,0.73-0.03,1.38,0.2,2.04c0.55,1.6,0.05,2.99-0.96,4.19
			c-1.05,1.26-2.43,1.84-4.1,1.49c0.37-0.25,0.15-0.56,0.09-0.85c-0.5-2.51-0.1-5.02-0.14-7.53c-0.03-1.46,0.28-2.9,0.08-4.35
			c-0.41-2.99-0.23-5.96,0.27-8.92c0.41,0.47,0.28,1.04,0.27,1.58c0,0.69,0.24,1.22,0.97,1.22c0.76,0,0.94-0.57,0.91-1.24
			c-0.06-1.74-0.86-3.15-1.92-4.46c-0.12-0.7-0.26-1.4-0.34-2.11c-0.21-1.77,0.07-2.22,1.3-2.19c1.1,0.44,2.06,1.08,2.88,1.93
			c-0.09,0.66-0.5,1.21-0.49,1.93c0.05,3.37,0.03,6.73,0.04,10.1c-1.04,1.15-1.95,2.35-2.16,3.97c-0.09,0.74-0.1,1.49,0.71,1.62
			c0.82,0.13,0.89-0.61,0.99-1.29C34.51,22.77,34.8,21.81,35.73,21.24z"/>
		<path class="st8" d="M40.03,90.29c-1.81-0.33-3.63-0.06-5.45-0.17c0.65-0.46,1.39-0.17,2.08-0.22c0.52-0.04,0.9-0.16,0.73-0.77
			c-0.35-1.22-0.1-2.45-0.18-3.68c-0.1-1.58,0.22-3.18-0.27-4.74c1.72-2.65,1.47-5.18-0.46-7.61c0.03-2.06,0.14-4.13-0.55-6.12
			c0-0.24,0-0.47,0-0.71c0.67-1.32,0.46-2.75,0.55-4.14c0.04-0.63-0.07-1.28,0.5-1.75c0.94,0.6,1.94,1.09,3.07,1.18
			c0.49,0.04,0.6,0.29,0.58,0.7c-0.01,0.2,0,0.4,0,0.6c0,8.74,0.01,17.48-0.02,26.21C40.63,89.51,41.03,90.28,40.03,90.29z"/>
		<path class="st9" d="M37,60.38c-0.57,0.47-0.46,1.13-0.5,1.75c-0.1,1.39,0.12,2.83-0.55,4.14c-0.42-2.57-1.89-4.11-4.48-4.54
			c-0.13-3.16,0.33-6.35-0.42-9.48c-0.12-0.51,0.39-0.82,0.44-1.32c0.1-0.85-0.53-1.5-0.51-2.3c1.36-2.16,3.77-2.55,5.73-0.95
			c-0.41,0.57-0.18,1.23-0.2,1.84c-0.04,1.14,0.06,2.29-0.25,3.41c-1.17,0.32-1.25,1.35-1.39,2.27C34.54,57.33,35.55,58.95,37,60.38
			z"/>
		<path class="st10" d="M9.87,48.21c0.03-1.39-0.34-2.69-0.91-3.95c0.49,0.08,1.02-0.01,1.45,0.33c0.45,0.39,0.99,0.17,1.49,0.2
			c0.55,0.04,0.93-0.03,0.56,0.79c-0.25,0.55-0.31,1.4-0.06,1.93c0.7,1.52,0.18,3.06,0.35,4.58c0.04,0.39-0.12,0.7-0.49,0.88
			c-0.66-0.14-1.5-0.47-1.43,0.68c0.11,1.66,0.94,3,2.16,4.12c-0.26,1.9-0.02,3.83-0.48,5.71c-1.26-0.37-2.31-1.05-3.15-2.05
			c0.43-0.41,0.52-0.92,0.52-1.5c-0.02-3.61-0.02-7.23-0.02-10.84C9.87,48.8,9.87,48.5,9.87,48.21z"/>
		<path class="st8" d="M34.84,19.45c-0.01-3.37,0.01-6.74-0.04-10.1c-0.01-0.72,0.4-1.27,0.49-1.93c2.49,1.95,4.01,4.52,4.83,7.54
			c0.22,0.8,0.46,1.59,0.49,2.45c0.03,0.82-0.1,1.17-1.04,0.96C37.85,17.98,36.29,18.52,34.84,19.45z"/>
		<path class="st11" d="M19.45,74.15c-1.57-1.16-2.24-2.89-2.83-4.63c-0.81-2.4-0.53-4.77,0.41-7.09c0.18-0.45,0.37-0.95-0.11-1.44
			c-0.53-0.53-0.85,0.04-1.26,0.13c-0.17-0.82,0.39-1.21,0.94-1.6c1.15,0.24,2.24-0.09,3.35-0.29c0,0.75-0.06,1.51,0.01,2.26
			c0.08,0.84-0.34,1.74,0.29,2.51c-1.18,2.2-0.88,4.26,0.6,6.21c-0.76-0.09-0.93,0.31-0.91,0.99
			C19.97,72.22,20.11,73.26,19.45,74.15z"/>
		<path class="st11" d="M17.07,15.05c1-0.92,0.94-1.37-0.23-1.92c0.47-1.92,0.16-3.87,0.21-5.8c0.01-0.36-0.27-0.55-0.55-0.72
			c0.1-0.17,0.26-0.23,0.45-0.18c0.33,0.02,0.57-0.09,0.6-0.47c0.55-0.51,1.17-0.9,1.94-0.98c0.49,0.68,0.49,1.45,0.47,2.24
			c-0.03,1.03-0.01,2.06,0,3.09c0,0.37-0.12,0.84,0.47,0.92c-0.42,1.39-1.32,2.74-0.41,4.25c-0.02,0.76-0.05,1.51-0.07,2.27
			c-0.02,0.7,0.15,1.45-0.51,1.99c-0.91-0.42-1.89-0.3-2.85-0.38c0.39-0.55,0.54-1.16,0.49-1.84
			C17.04,16.69,17.07,15.87,17.07,15.05z"/>
		<path class="st6" d="M32.42,5.48c-1.23-0.03-1.51,0.42-1.3,2.19c0.08,0.71,0.23,1.41,0.34,2.11c-1.75-1.7-3.88-2.16-6.23-1.94
			c0.1-0.17,0.61-0.39-0.08-0.44c-0.35-0.03-0.69,0.32-1.01,0.05c-0.61-0.53-0.4-3.09,0.31-3.62c-0.23,0-0.43,0-0.62,0
			c0.66-0.38,1.4-0.26,2.08-0.19C28.19,3.86,30.44,4.21,32.42,5.48z"/>
		<path class="st7" d="M9.87,49.09c0,3.61,0,7.23,0.02,10.84c0,0.59-0.08,1.09-0.52,1.5C5.88,58.22,6.19,52.15,9.87,49.09z"/>
		<path class="st12" d="M16.5,6.61c0.28,0.17,0.56,0.36,0.55,0.72c-0.05,1.94,0.26,3.88-0.21,5.8c-1.69,0.11-3.41-0.24-5.09,0.33
			c-0.68,0.23-0.44-0.44-0.33-0.66C12.61,10.33,14.14,8.13,16.5,6.61z"/>
		<path class="st13" d="M23.84,3.82c0.2,0,0.39,0,0.62,0c-0.71,0.53-0.93,3.09-0.31,3.62c0.32,0.28,0.66-0.08,1.01-0.05
			c0.69,0.06,0.18,0.28,0.08,0.44c-2.13,0.39-3.61,1.68-4.81,3.39c-0.59-0.08-0.47-0.54-0.47-0.92c-0.01-1.03-0.02-2.06,0-3.09
			c0.02-0.79,0.02-1.57-0.47-2.24C20.81,4.11,22.34,4.02,23.84,3.82z"/>
		<path class="st10" d="M10.34,22.75c-0.64-0.14-0.44-0.66-0.45-1.06c-0.02-1.38-0.04-2.76,0-4.14c0.03-0.75-0.2-1.13-0.99-1.05
			c1.12-0.91,2.41-1.39,3.85-1.43c0.63,0.14,0.47,0.65,0.48,1.05c0.01,1.39,0,2.77,0,4.16C12.07,20.87,11.16,21.76,10.34,22.75z"/>
		<path class="st13" d="M19.45,74.15c0.66-0.9,0.53-1.94,0.49-2.94c-0.02-0.68,0.15-1.08,0.91-0.99c1.35,1.3,2.95,1.89,4.83,1.66
			c-0.47,0.6-1.64-0.01-1.66,0.44c-0.03,0.89-0.33,1.8-0.15,2.65c0.14,0.69,0.12,1.31-0.06,1.96C22.05,76.48,20.57,75.6,19.45,74.15
			z"/>
		<path class="st12" d="M13.24,20.28c0-1.39,0.01-2.77,0-4.16c0-0.41,0.15-0.92-0.48-1.05c1.44-0.67,2.87-0.34,4.31-0.01
			c0,0.82-0.03,1.64,0.02,2.45c0.04,0.69-0.1,1.29-0.49,1.84C15.39,19.36,14.31,19.79,13.24,20.28z"/>
		<path class="st12" d="M16.6,59.53c-0.55,0.39-1.11,0.78-0.94,1.6c-0.22,0.71-0.44,1.42-0.65,2.13c-0.2,0.66-0.65,0.86-1.27,0.68
			c-0.41-0.12-0.81-0.3-1.21-0.46c0.46-1.88,0.22-3.82,0.48-5.71C14.13,58.52,15.27,59.23,16.6,59.53z"/>
		<path class="st12" d="M17.55,5.96c-0.03,0.38-0.27,0.48-0.6,0.47C17.04,6.13,17.23,5.96,17.55,5.96z"/>
		<path class="st10" d="M9.47,47.93C9.55,47.95,9.6,48,9.64,48.08C9.51,48.11,9.45,48.07,9.47,47.93z"/>
		<path class="st4" d="M69.81,71.66c0.07-0.26,0.18-0.47,0.49-0.48c0.16,0.05,0.46,0.06,0.33,0.31
			C70.46,71.8,70.09,71.62,69.81,71.66z"/>
		<path class="st4" d="M72.71,30.9c0.15,0.02,0.32,0.02,0.35,0.22c0.01,0.04-0.09,0.14-0.13,0.13
			C72.74,31.23,72.74,31.05,72.71,30.9L72.71,30.9z"/>
		<path class="st4" d="M71.74,31.3c-0.1-0.05-0.2-0.09-0.3-0.14C71.54,31.21,71.64,31.26,71.74,31.3z"/>
		<path class="st14" d="M77.04,48.4c-0.03-0.01-0.06-0.02-0.08-0.03c0.02,0.02,0.05,0.03,0.07,0.05
			C77.02,48.41,77.04,48.4,77.04,48.4z"/>
		<path class="st4" d="M71.02,24.19c0.08-0.08,0.17-0.17,0.25-0.25C71.19,24.03,71.1,24.11,71.02,24.19z"/>
		<path class="st3" d="M52.57,15.08c0.66-0.07,1.28,0.14,1.92,0.25C53.8,15.58,53.11,15.96,52.57,15.08z"/>
		<path class="st3" d="M54.01,63.73c-0.28-0.08-0.56-0.17-0.75-0.43C53.9,62.77,53.99,63.2,54.01,63.73z"/>
		<path class="st3" d="M53.53,38.58c0.08-0.23,0.23-0.39,0.48-0.45C53.99,38.42,53.82,38.56,53.53,38.58z"/>
		<path class="st2" d="M55.9,14.41c-0.5-0.5-0.93-1.05-1.26-1.68C55.84,12.7,55.98,13.47,55.9,14.41z"/>
		<path class="st2" d="M54.94,67.76c0.05-0.26,0.21-0.39,0.46-0.43c0.17,0.05,0.47,0.06,0.37,0.3c-0.09,0.22-0.32,0.44-0.54,0.52
			C54.99,68.23,55,67.93,54.94,67.76z"/>
		<path class="st4" d="M62.18,60.65c-0.27,0.46-0.5,0.95-0.95,1.27C61.14,61.2,61.55,60.84,62.18,60.65z"/>
		<path class="st4" d="M61.38,28.55c-0.07,0-0.13-0.01-0.19-0.04c0.04-0.17,0.07-0.45,0.28-0.35
			C61.72,28.27,61.52,28.44,61.38,28.55z"/>
		<path class="st3" d="M55.46,19.4c0.05-0.13,0.1-0.25,0.15-0.38c0.05,0.02,0.1,0.05,0.14,0.07c-0.1,0.1-0.21,0.2-0.31,0.29
			C55.44,19.39,55.46,19.4,55.46,19.4z"/>
		<path class="st2" d="M54.53,68.06c0.06-0.06,0.12-0.12,0.18-0.18C54.65,67.93,54.59,68,54.53,68.06z"/>
		<path class="st14" d="M57.61,48.89c0.01-0.03,0.03-0.06,0.04-0.1c-0.02,0.03-0.04,0.05-0.06,0.08
			C57.6,48.88,57.61,48.89,57.61,48.89z"/>
		<path class="st4" d="M59.39,78.84c0.12-0.16,0.25-0.31,0.37-0.47C59.75,78.61,59.66,78.8,59.39,78.84z"/>
		<path class="st4" d="M58.56,83.17c-0.01,0.08-0.02,0.16-0.03,0.23c-0.02-0.06-0.05-0.12-0.05-0.18
			C58.47,83.22,58.53,83.19,58.56,83.17z"/>
		<path class="st13" d="M19.44,19.74c0.66-0.54,0.49-1.28,0.51-1.99c0.02-0.76,0.04-1.51,0.07-2.27c1.09,0.13,1.33-0.49,1.38-1.44
			c0.16-3.17,3.85-5.35,6.31-4.31c-1.26-0.14-1.57,0.43-1.55,1.65c0.06,5.86,0.02,11.73,0.04,17.59c0,0.8-0.37,1.79,0.85,2.16
			c0.09,0.03,0.06,0.44,0.09,0.68c-1.29,0.14-1.5,0.54-0.88,1.64c0.15,0.26,0.53,0.4,0.41,0.8c-0.58,0.1-0.47,0.56-0.47,0.94
			c0,10.99,0,21.98-0.01,32.96c0,0.51,0.06,0.96,0.6,1.19c-0.88,0.98-1.97,1.1-3.11,0.66c-2.28-0.87-3.04-3.32-1.66-5.45
			c0.36-0.56,0.39-0.91-0.09-1.31c-0.49-0.4-0.87-0.17-1.21,0.23c-0.15,0.18-0.3,0.36-0.44,0.54c-0.62-0.77-0.21-1.67-0.29-2.51
			c-0.07-0.75-0.01-1.5-0.01-2.26c4.49-1.52,6.24-6.32,4.26-10.26c-0.35-0.7-0.79-1.38-1.45-1.85c-0.4-0.28-0.76-0.41-1.14,0.03
			c-0.35,0.4-0.32,0.76,0.01,1.16c0.33,0.4,0.63,0.81,0.91,1.25c2.04,3.21-0.18,7.4-3.06,7.89c0.6-1.09,0.46-2.29,0.46-3.46
			c0-2.87,0.02-5.75-0.02-8.62c-0.01-0.74,0.1-1.4,0.51-2.01c1.01-0.34,1.87-0.01,2.66,0.59c0.35,0.26,0.7,0.46,1.05,0.09
			c0.35-0.38,0.43-0.85,0.08-1.3c-0.27-0.35-0.63-0.58-1.01-0.79c-1.03-0.57-2.14-0.5-3.26-0.48c-0.01-0.48,0.01-0.96-0.02-1.44
			c-0.08-1.12,0.3-2.31-0.47-3.33c2.69-1.81,3.93-5.63,1.85-8.8c-0.4-0.61-0.93-1.13-1.41-1.69c0.01-1.02,0.02-2.03,0.04-3.05
			c0-0.39-0.05-0.82,0.51-0.89c0.8,0.25,1.21,0.96,1.69,1.55c0.43,0.52,0.8,0.76,1.34,0.31c0.55-0.46,0.32-0.94-0.06-1.43
			C22.37,21.33,21.1,20.27,19.44,19.74z"/>
		<path class="st9" d="M37.43,32.58c0.35,0.26,0.27,0.63,0.27,0.98c0,3.72,0.01,7.45,0,11.17c0,0.4,0.17,0.92-0.48,1.04
			c-2.71-1.38-5.83-0.56-7.22,0.95c-0.7-0.24-0.94-0.74-0.93-1.46c0.02-2.62,0.01-5.24,0-7.87c0-0.54,0.03-1.04,0.6-1.3
			c2.43,0.35,4.65-0.02,6.47-1.85C36.65,33.74,36.76,32.95,37.43,32.58z"/>
		<path class="st9" d="M36.95,80.72c0.49,1.56,0.17,3.16,0.27,4.74c0.07,1.22-0.17,2.46,0.18,3.68c0.17,0.61-0.21,0.72-0.73,0.77
			c-0.69,0.06-1.43-0.24-2.08,0.22c-0.04,0-0.08,0.01-0.12,0.01c-2.51,0.03-2.53,0.02-2.53-2.42c0-1.5,0-3.01,0-4.51
			C34.01,83.17,35.65,82.29,36.95,80.72z"/>
		<path class="st0" d="M37.43,32.58c-0.66,0.37-0.77,1.16-1.28,1.67c-1.83,1.82-4.04,2.2-6.47,1.85c-0.95-0.69-2.14-1-3.01-1.83
			c0.11-0.39-0.27-0.54-0.41-0.8c-0.62-1.1-0.41-1.5,0.88-1.64c0.27,0.11,0.38,0.36,0.54,0.58c0.79,1.13,1.78,1.94,3.26,1.93
			c1.67,0.35,3.05-0.23,4.1-1.49c1.01-1.21,1.51-2.59,0.96-4.19c-0.23-0.66-0.63-1.31-0.2-2.04c1.25-0.05,1.64,0.31,1.9,1.65
			C37.96,29.73,37.71,31.15,37.43,32.58z"/>
		<path class="st0" d="M36.95,80.72c-1.3,1.58-2.95,2.45-5.01,2.48c-0.54-0.1-1.1-0.08-1.6-0.42c-0.35-0.24-0.7-0.5-0.6-0.91
			c0.11-0.46,0.49-0.67,1.01-0.63c0.63,0.05,1.27,0.02,1.91,0.03c0.86,0.12,1.53-0.33,2.15-0.81c1.46-1.14,1.81-2.73,1.38-4.38
			c-0.47-1.82-1.86-2.79-3.72-3.06c-0.01-0.44-0.02-0.88-0.03-1.32c0.43-0.21,0.81-0.3,1.33-0.13c1.03,0.33,1.85,0.99,2.72,1.57
			C38.43,75.54,38.68,78.07,36.95,80.72z"/>
		<path class="st9" d="M32.47,73c1.86,0.27,3.25,1.24,3.72,3.06c0.43,1.65,0.08,3.25-1.38,4.38c-0.62,0.49-1.29,0.93-2.15,0.81
			c-0.72-0.67-0.77-1.52-0.73-2.43c0.05-1.31,0.04-2.63,0-3.94C31.9,74.18,32.03,73.56,32.47,73z"/>
		<path class="st0" d="M20.26,64.01c0.15-0.18,0.29-0.36,0.44-0.54c0.34-0.4,0.73-0.63,1.21-0.23c0.48,0.4,0.46,0.75,0.09,1.31
			c-1.39,2.13-0.63,4.58,1.66,5.45c1.15,0.44,2.24,0.32,3.11-0.66c0.41-0.04,0.6-0.38,0.8-0.65c0.4-0.53,0.93-0.55,1.35-0.24
			c0.41,0.31,0.32,0.88,0.03,1.3c-0.79,1.17-1.98,1.73-3.28,2.12c-1.88,0.23-3.47-0.36-4.83-1.66
			C19.38,68.27,19.08,66.21,20.26,64.01z"/>
		<path class="st0" d="M29.99,46.72c1.39-1.51,4.5-2.33,7.22-0.95c0.15,0.13,0.28,0.29,0.44,0.39c0.53,0.33,0.89,0.76,0.55,1.37
			c-0.38,0.7-0.95,0.53-1.49,0.16c-1.97-1.61-4.37-1.21-5.73,0.95c-0.96,1.06-0.69,2.29-0.43,3.49c0.11,0.53,0.34,1.06-0.32,1.3
			c-0.7,0.25-1.04-0.15-1.3-0.82c-0.74-1.93-0.3-3.65,0.74-5.3C29.79,47.11,30.05,47.01,29.99,46.72z"/>
		<path class="st9" d="M36.49,73.11c-0.87-0.58-1.69-1.23-2.72-1.57c-0.52-0.17-0.9-0.07-1.33,0.13c-0.48-0.07-0.5-0.42-0.5-0.8
			c-0.02-2.45,0.1-4.9-0.24-7.33c0.09,0.02,0.19,0.04,0.28,0.06c0.04,0.3,0.24,0.37,0.5,0.35c1.5,0.88,2.03,1.99,1.65,3.6
			c-0.14,0.57-0.17,1.05,0.48,1.23c0.7,0.19,1.01-0.27,1.15-0.87c0.07-0.31,0.12-0.62,0.18-0.93
			C36.63,68.98,36.52,71.05,36.49,73.11z"/>
		<path class="st0" d="M31.98,63.6c-0.09-0.02-0.19-0.04-0.28-0.06c-0.59,0-1.18-0.05-1.76,0.02c-0.58,0.06-1.14,0.17-1.3-0.59
			c-0.16-0.78,0.46-0.87,0.98-1.05c0.61-0.21,1.21-0.34,1.85-0.2c2.59,0.43,4.06,1.97,4.48,4.54c0,0.24,0,0.48,0,0.71
			c-0.06,0.31-0.11,0.62-0.18,0.93c-0.14,0.6-0.45,1.06-1.15,0.87c-0.65-0.18-0.62-0.66-0.48-1.23c0.39-1.61-0.14-2.71-1.65-3.6
			C32.38,63.74,32.2,63.64,31.98,63.6z"/>
		<path class="st10" d="M8.28,34.54c-0.26-0.19-0.45-0.55-0.1-0.64c1.87-0.44,0.83-1.94,0.96-2.9c0.07-0.51-0.22-1.25-0.12-1.91
			c0.3,0.72,0.6,1.44,0.89,2.17c0.26,0.67,0.75,1.07,1.43,0.77c0.73-0.32,0.57-0.98,0.21-1.51c-1-1.47-0.99-3.12-0.65-4.7
			c0.33-1.57,1.17-2.96,2.78-3.66c0.09,0.86,0.4,1.78,0.22,2.58c-0.4,1.89-0.14,3.69,0.25,5.52c0.04,0.18,0.01,0.42-0.08,0.58
			c-0.91,1.61-0.39,3.19,0.1,4.77c-0.55-0.09-1.09-0.07-1.26,0.56c-0.18,0.65,0.33,0.87,0.82,1.07c0.18,0.07,0.32,0.21,0.49,0.32
			c-0.01,1.45-0.02,2.91-0.03,4.36c-0.97-0.05-1.55,0.88-2.5,0.96c-1.78,0.14-3.19-0.69-4.01-2.47c-0.6-1.3-0.15-2.86,1.15-4.17
			c0.31-0.31,0.97-0.47,0.76-1.07C9.39,34.62,8.79,34.62,8.28,34.54z"/>
		<path class="st0" d="M13.68,22.17c-1.61,0.7-2.45,2.09-2.78,3.66c-0.34,1.58-0.35,3.23,0.65,4.7c0.36,0.53,0.52,1.18-0.21,1.51
			c-0.68,0.3-1.17-0.09-1.43-0.77c-0.29-0.73-0.59-1.45-0.89-2.17c-0.35-2.28,0.15-4.38,1.31-6.35c0.83-0.99,1.74-1.88,2.9-2.47
			c1.07-0.48,2.15-0.92,3.36-0.92c0.96,0.09,1.94-0.03,2.85,0.38c1.66,0.54,2.93,1.59,3.99,2.95c0.38,0.49,0.61,0.97,0.06,1.43
			c-0.53,0.45-0.91,0.21-1.34-0.31c-0.48-0.58-0.89-1.3-1.69-1.55c-0.96-0.91-2.12-1.09-3.38-0.99
			C15.83,21.1,14.65,21.25,13.68,22.17z"/>
		<path class="st0" d="M8.28,34.54c0.5,0.08,1.11,0.08,1.31,0.64c0.22,0.6-0.45,0.76-0.76,1.07c-1.29,1.31-1.75,2.88-1.15,4.17
			c0.82,1.78,2.22,2.61,4.01,2.47c0.94-0.07,1.52-1.01,2.5-0.96c0.77,0.9,0.7,1.33-0.27,1.92c-1.09,0.67-2.3,0.71-3.52,0.74
			c-0.43-0.34-0.96-0.25-1.45-0.33c-0.12-0.48-0.62-0.46-0.93-0.67C4.75,41.35,5.3,36.38,8.28,34.54z"/>
		<path class="st6" d="M30.92,34.33c-1.47,0.01-2.47-0.81-3.26-1.93c-0.16-0.23-0.26-0.47-0.54-0.58c-0.03-0.23,0-0.65-0.09-0.68
			c-1.22-0.37-0.84-1.36-0.85-2.16c-0.02-5.86,0.03-11.73-0.04-17.59c-0.01-1.22,0.3-1.79,1.55-1.65c1.82,0.2,2.82,1.39,3.51,2.94
			c-0.5,2.96-0.68,5.93-0.27,8.92c0.2,1.45-0.11,2.89-0.08,4.35c0.05,2.51-0.35,5.03,0.14,7.53C31.07,33.78,31.29,34.08,30.92,34.33
			z"/>
		<path class="st0" d="M31.22,12.68c-0.69-1.55-1.69-2.74-3.51-2.94c-2.45-1.04-6.15,1.14-6.31,4.31c-0.05,0.94-0.29,1.56-1.38,1.44
			c-0.91-1.52-0.01-2.86,0.41-4.25c1.19-1.71,2.68-3.01,4.81-3.39c2.35-0.22,4.48,0.24,6.23,1.94c1.06,1.31,1.85,2.72,1.92,4.46
			c0.02,0.67-0.16,1.24-0.91,1.24c-0.73,0-0.98-0.54-0.97-1.22C31.5,13.72,31.64,13.15,31.22,12.68z"/>
		<path class="st12" d="M10.41,44.6c1.22-0.04,2.43-0.08,3.52-0.74c0.97-0.59,1.04-1.02,0.27-1.92c0.01-1.45,0.02-2.91,0.03-4.36
			c0.39,0.03,0.79,0.07,1.18,0.1c0.4,0.07,0.8,0.75,1.19,0c0.16-0.01,0.31-0.01,0.47-0.02c0.02,1.93,0.03,3.85,0.05,5.78
			c-0.76,1.71-0.96,3.43,0.01,5.14c-0.02,3.05-0.04,6.11-0.05,9.16c-2.78-0.39-4.17-2.19-4.81-4.75c0.36-0.18,0.53-0.49,0.49-0.88
			c-0.17-1.52,0.35-3.07-0.35-4.58c-0.25-0.53-0.19-1.38,0.06-1.93c0.37-0.82-0.01-0.75-0.56-0.79
			C11.4,44.77,10.86,44.99,10.41,44.6z"/>
		<path class="st0" d="M12.27,52.98c0.64,2.56,2.03,4.35,4.81,4.75c0.82,0.03,1.66,0.25,2.42-0.27c2.87-0.49,5.1-4.68,3.06-7.89
			c-0.28-0.43-0.58-0.85-0.91-1.25c-0.33-0.4-0.36-0.76-0.01-1.16c0.38-0.44,0.74-0.32,1.14-0.03c0.67,0.48,1.1,1.15,1.45,1.85
			c1.97,3.95,0.23,8.74-4.26,10.26c-1.11,0.2-2.21,0.52-3.35,0.29c-1.34-0.3-2.48-1.01-3.6-1.76c-1.22-1.11-2.05-2.46-2.16-4.12
			C10.77,52.51,11.61,52.84,12.27,52.98z"/>
		<path class="st11" d="M17.08,21.28c1.25-0.11,2.42,0.07,3.38,0.99c-0.56,0.08-0.5,0.5-0.51,0.89c-0.01,1.02-0.02,2.03-0.04,3.05
			c-0.29-0.13-0.57-0.27-0.86-0.4c-0.54-0.25-1.16-0.4-1.43,0.25c-0.22,0.52-0.07,1.05,0.63,1.32c1.02,0.39,1.65,1.24,1.99,2.21
			c0.92,2.6-0.25,5.66-3.17,6.13C17.09,30.9,17.08,26.09,17.08,21.28z"/>
		<path class="st11" d="M19.49,57.46c-0.76,0.52-1.6,0.3-2.42,0.27c0.02-3.05,0.04-6.11,0.05-9.16c1.29-0.02,1.62-0.5,1.2-1.71
			c-0.56-1.6,0.41-3.2,2.13-3.49c-0.41,0.61-0.53,1.27-0.51,2.01c0.04,2.87,0.02,5.75,0.02,8.62
			C19.95,55.17,20.09,56.36,19.49,57.46z"/>
		<path class="st0" d="M17.09,35.71c2.92-0.46,4.08-3.53,3.17-6.13c-0.34-0.97-0.98-1.83-1.99-2.21c-0.7-0.27-0.84-0.8-0.63-1.32
			c0.27-0.65,0.89-0.5,1.43-0.25c0.29,0.13,0.57,0.27,0.86,0.4c0.47,0.56,1.01,1.08,1.41,1.69c2.08,3.17,0.85,6.99-1.85,8.8
			c-0.79,0.35-1.53,0.83-2.41,0.95c-0.16,0.01-0.31,0.01-0.47,0.02c-0.4,0-0.8,0-1.19,0c-0.39-0.03-0.79-0.07-1.18-0.1
			c-0.16-0.11-0.31-0.25-0.48-0.32c-0.49-0.2-1-0.42-0.82-1.07c0.17-0.63,0.71-0.65,1.26-0.56C15.14,35.89,16.1,36.16,17.09,35.71z"
			/>
		<path class="st0" d="M20.45,43.36c-1.71,0.29-2.69,1.89-2.13,3.49c0.43,1.22,0.1,1.69-1.2,1.71c-0.97-1.71-0.78-3.42-0.01-5.14
			c0.86-0.79,1.74-1.55,2.86-1.96c1.11-0.02,2.22-0.09,3.26,0.48c0.39,0.21,0.74,0.44,1.01,0.79c0.35,0.45,0.27,0.92-0.08,1.3
			c-0.34,0.38-0.7,0.17-1.05-0.09C22.32,43.35,21.46,43.02,20.45,43.36z"/>
		<path class="st11" d="M19.97,41.47c-1.12,0.41-2,1.17-2.86,1.96c-0.01-1.93-0.03-3.85-0.05-5.78c0.88-0.12,1.62-0.6,2.41-0.95
			c0.77,1.02,0.39,2.21,0.47,3.33C19.98,40.51,19.97,40.99,19.97,41.47z"/>
		<path class="st6" d="M31.98,63.6c0.23,0.03,0.4,0.14,0.5,0.35C32.22,63.97,32.02,63.91,31.98,63.6z"/>
		<path class="st12" d="M17.09,35.71c-0.98,0.45-1.95,0.17-2.91-0.1c-0.49-1.58-1.01-3.16-0.1-4.77c0.09-0.16,0.11-0.4,0.08-0.58
			c-0.39-1.83-0.65-3.63-0.25-5.52c0.17-0.81-0.14-1.72-0.22-2.58c0.97-0.92,2.14-1.07,3.4-0.89C17.08,26.09,17.09,30.9,17.09,35.71
			z"/>
		<path class="st11" d="M15.41,37.67c0.4,0,0.8,0,1.19,0C16.21,38.42,15.81,37.74,15.41,37.67z"/>
	</g>
	<g>
		<g>
			<path class="st5" d="M134.01,54.56V69.4h-12.94c-1.76,0-3,0.26-3.74,0.78c-0.73,0.52-1.1,1.4-1.1,2.64c0,1.4,0.37,2.32,1.12,2.76
				c0.75,0.44,2.28,0.66,4.59,0.66h13.33v19.04H119.7c-7.32,0-12.92-1.75-16.8-5.25c-3.87-3.5-5.81-8.55-5.81-15.16V48.75
				c0-6.38,1.83-11.33,5.49-14.84s8.81-5.27,15.45-5.27h17.24v19.14h-12.65c-3.42,0-5.13,1.11-5.13,3.32c0,1.3,0.41,2.21,1.22,2.71
				c0.81,0.5,2.26,0.76,4.35,0.76H134.01z"/>
			<path class="st5" d="M166.48,47.77v47.51h-19.82V28.63h25.83c11.33,0,20.2,2.57,26.61,7.71c7.62,6.15,11.43,14.5,11.43,25.05
				c0,10.09-3.26,18.33-9.77,24.71c-6.51,6.38-14.89,9.57-25.15,9.57c-1.2,0-3.17-0.07-5.91-0.2V75.89h3.17
				c11.56,0,17.33-4.83,17.33-14.5c0-9.08-5.68-13.62-17.04-13.62H166.48z"/>
			<path class="st5" d="M266.68,28.63v43.21c0,7.62-2.27,13.7-6.81,18.26s-10.59,6.84-18.14,6.84c-7.52,0-13.27-2.21-17.26-6.64
				c-3.99-4.43-5.98-10.79-5.98-19.09V28.63h19.82v42.53c0,4.07,1.45,6.1,4.35,6.1c2.8,0,4.2-2.03,4.2-6.1V28.63H266.68z"/>
			<path class="st5" d="M303.74,28.63h24.22c14.36,0,21.53,5.65,21.53,16.94c0,5.6-2.46,10.25-7.37,13.96
				c7.13,3.09,10.69,8.61,10.69,16.55c0,6.09-2.1,10.94-6.3,14.55c-2.05,1.73-4.25,2.93-6.59,3.61s-5.5,1.03-9.47,1.03h-3.76V78.14
				h3.37c1.99,0,3.38-0.25,4.2-0.76c0.81-0.5,1.22-1.39,1.22-2.66c0-2.15-1.66-3.22-4.98-3.22h-3.81V53.73
				c3.65,0,5.47-1.25,5.47-3.76c0-2.31-1.64-3.47-4.93-3.47h-3.66v48.78h-19.82V28.63z"/>
			<path class="st5" d="M380.64,46.55v48.73h-19.82V28.63h25.44c7.75,0,13.75,1.92,18.02,5.76c4.75,4.3,7.13,9.75,7.13,16.36
				c0,6.74-2.95,12.42-8.84,17.04l11.43,27.49h-20.8l-9.62-21.48V56.66h1.56c4.17,0,6.25-1.79,6.25-5.37c0-3.16-2.41-4.74-7.23-4.74
				H380.64z"/>
			<path class="st5" d="M452.22,26.97c9.44,0,17.54,3.43,24.29,10.3c6.75,6.87,10.13,15.09,10.13,24.66c0,9.73-3.4,18-10.21,24.8
				c-6.8,6.8-15.07,10.21-24.8,10.21c-9.67,0-17.92-3.42-24.76-10.25s-10.25-15.09-10.25-24.76c0-9.77,3.44-18.03,10.33-24.8
				C433.84,30.35,442.26,26.97,452.22,26.97z M451.64,46.6c-4.07,0-7.54,1.5-10.4,4.49c-2.87,3-4.3,6.61-4.3,10.84
				c0,4.23,1.44,7.85,4.32,10.84c2.88,3,6.34,4.49,10.38,4.49c4.1,0,7.58-1.49,10.42-4.47c2.85-2.98,4.27-6.6,4.27-10.86
				c0-4.26-1.42-7.89-4.27-10.86C459.21,48.09,455.74,46.6,451.64,46.6z"/>
		</g>
		<g>
			<g>
				<path class="st15" d="M137.82,52.03v14.84h-12.94c-1.76,0-3,0.26-3.74,0.78c-0.73,0.52-1.1,1.4-1.1,2.64
					c0,1.4,0.37,2.32,1.12,2.76c0.75,0.44,2.28,0.66,4.59,0.66h13.33v19.04h-15.58c-7.32,0-12.92-1.75-16.8-5.25
					c-3.87-3.5-5.81-8.55-5.81-15.16V46.22c0-6.38,1.83-11.33,5.49-14.84s8.81-5.27,15.45-5.27h17.24v19.14h-12.65
					c-3.42,0-5.13,1.11-5.13,3.32c0,1.3,0.41,2.21,1.22,2.71c0.81,0.5,2.26,0.76,4.35,0.76H137.82z"/>
				<path class="st15" d="M170.29,45.24v47.51h-19.82V26.1h25.83c11.33,0,20.2,2.57,26.61,7.71c7.62,6.15,11.43,14.5,11.43,25.05
					c0,10.09-3.26,18.33-9.77,24.71c-6.51,6.38-14.89,9.57-25.15,9.57c-1.2,0-3.17-0.07-5.91-0.2V73.37h3.17
					c11.56,0,17.33-4.83,17.33-14.5c0-9.08-5.68-13.62-17.04-13.62H170.29z"/>
				<path class="st15" d="M270.49,26.1v43.21c0,7.62-2.27,13.71-6.81,18.26c-4.54,4.56-10.59,6.84-18.14,6.84
					c-7.52,0-13.27-2.21-17.26-6.64c-3.99-4.43-5.98-10.79-5.98-19.09V26.1h19.82v42.53c0,4.07,1.45,6.1,4.35,6.1
					c2.8,0,4.2-2.03,4.2-6.1V26.1H270.49z"/>
				<path class="st15" d="M307.55,26.1h24.22c14.36,0,21.53,5.65,21.53,16.94c0,5.6-2.46,10.25-7.37,13.96
					c7.13,3.09,10.69,8.61,10.69,16.55c0,6.09-2.1,10.94-6.3,14.55c-2.05,1.73-4.25,2.93-6.59,3.61s-5.5,1.03-9.47,1.03h-3.76V75.61
					h3.37c1.99,0,3.38-0.25,4.2-0.76c0.81-0.5,1.22-1.39,1.22-2.66c0-2.15-1.66-3.22-4.98-3.22h-3.81V51.2
					c3.65,0,5.47-1.25,5.47-3.76c0-2.31-1.64-3.47-4.93-3.47h-3.66v48.78h-19.82V26.1z"/>
				<path class="st15" d="M384.45,44.02v48.73h-19.82V26.1h25.44c7.75,0,13.75,1.92,18.02,5.76c4.75,4.3,7.13,9.75,7.13,16.36
					c0,6.74-2.95,12.42-8.84,17.04l11.43,27.49H397l-9.62-21.48V54.13h1.56c4.17,0,6.25-1.79,6.25-5.37c0-3.16-2.41-4.74-7.23-4.74
					H384.45z"/>
				<path class="st15" d="M456.03,24.44c9.44,0,17.54,3.43,24.29,10.3c6.75,6.87,10.13,15.09,10.13,24.66c0,9.73-3.4,18-10.21,24.8
					c-6.8,6.8-15.07,10.21-24.8,10.21c-9.67,0-17.92-3.42-24.76-10.25s-10.25-15.09-10.25-24.76c0-9.77,3.44-18.03,10.33-24.8
					C437.65,27.83,446.07,24.44,456.03,24.44z M455.45,44.07c-4.07,0-7.54,1.5-10.4,4.49c-2.87,3-4.3,6.61-4.3,10.84
					c0,4.23,1.44,7.85,4.32,10.84c2.88,3,6.34,4.49,10.38,4.49c4.1,0,7.58-1.49,10.42-4.47c2.85-2.98,4.27-6.6,4.27-10.86
					c0-4.26-1.42-7.89-4.27-10.86C463.02,45.56,459.55,44.07,455.45,44.07z"/>
			</g>
		</g>
	</g>
</g>
</svg>
